<?xml version="1.0" encoding="utf-8"?>
<!-- Generator: Adobe Illustrator 19.0.0, SVG Export Plug-In . SVG Version: 6.00 Build 0)  -->
<svg version="1.1" id="Layer_1" xmlns="http://www.w3.org/2000/svg" xmlns:xlink="http://www.w3.org/1999/xlink" x="0px" y="0px"
	 viewBox="0 0 78 78" style="enable-background:new 0 0 78 78;" xml:space="preserve">
<style type="text/css">
	.st0{fill:#1A1A1A;}
	.st1{fill:transparent;}
</style>
<g id="XMLID_1_">
	<path id="XMLID_10_" class="st0" d="M0,0v78h78V0H0z M36,55H15V23h6v27h15V55z M62.9,28H47v9h14v5H47v13h-5V23h20.9L62.9,28z"/>
	<polygon id="XMLID_12_" class="st1" points="21,23 15,23 15,55 36,55 36,50 21,50 	"/>
	<polygon id="XMLID_13_" class="st1" points="42,55 47,55 47,42 61,42 61,37 47,37 47,28 62.9,28 62.9,23 42,23 	"/>
</g>
</svg>
